<svg id="Capa_1" data-name="Capa 1" xmlns="http://www.w3.org/2000/svg" viewBox="0 0 534.61 355.57"><defs><style>.cls-1,.cls-3{fill:#72b84e;}.cls-2{fill:none;stroke-width:11px;}.cls-2,.cls-3{stroke:#72b84e;stroke-miterlimit:10;}.cls-3{stroke-width:4px;}.cls-4{fill:#fff;}</style></defs><path class="cls-1" d="M426.55,180.85a7.11,7.11,0,0,1,.09,1.14v64.32a8.1,8.1,0,0,1-8.08,8.11H418a8.1,8.1,0,0,1-8.1-8.11V182a7.11,7.11,0,0,1,.09-1.14h-.09a16.25,16.25,0,1,0-32.5,0h0a8.19,8.19,0,0,1,0,.87V246a8.1,8.1,0,0,1-8.1,8.11h-.59a8.1,8.1,0,0,1-8.09-8.11V181.72a8.14,8.14,0,0,1,.05-.87h-.05a33,33,0,1,1,66.05,0Z" transform="translate(-165.83 -109.89)"/><path class="cls-2" d="M600.26,287.93H266c-52.08,0-94.68-38.82-94.68-86.27h0c0-47.45,42.6-86.27,94.68-86.27H600.26c52.07,0,94.67,38.82,94.67,86.27h0C694.93,249.11,652.33,287.93,600.26,287.93Z" transform="translate(-165.83 -109.89)"/><path class="cls-3" d="M343.42,180.5v41.24a28.29,28.29,0,0,1-8.77,20.89,30.28,30.28,0,0,1-42.37,0,28.42,28.42,0,0,1-8.76-20.92V180.5a28.32,28.32,0,0,1,8.76-20.89,30.22,30.22,0,0,1,42.37,0A28.29,28.29,0,0,1,343.42,180.5Zm-49.28.69v40.75a19.26,19.26,0,0,0,19.33,19.19,19.38,19.38,0,0,0,19.32-19.19V180.3a18.53,18.53,0,0,0-5.71-13.55,19.37,19.37,0,0,0-25.93-1.28A20.39,20.39,0,0,0,294.14,181.19Z" transform="translate(-165.83 -109.89)"/><path class="cls-1" d="M473.47,250H449.94a6.5,6.5,0,0,1-6.49-6.49V158.74a6.5,6.5,0,0,1,6.46-6.49h23.63a29.07,29.07,0,0,1,21.19,8.66,28.34,28.34,0,0,1,8.76,20.89v38.65a28.32,28.32,0,0,1-8.76,20.89A29,29,0,0,1,473.54,250Zm-19.39-80.33v62.94a7.23,7.23,0,0,0,7.23,7.23h12.23a18.59,18.59,0,0,0,12.2-4.38,20.3,20.3,0,0,0,7.13-15.71V181.59A18.38,18.38,0,0,0,487.15,168a18.7,18.7,0,0,0-13.61-5.64h-.07l-12.18,0A7.23,7.23,0,0,0,454.08,169.67Z" transform="translate(-165.83 -109.89)"/><path class="cls-1" d="M473.54,253h-23.6a9.5,9.5,0,0,1-9.49-9.49V158.74a9.5,9.5,0,0,1,9.45-9.49l4.17,0h19.4a32.14,32.14,0,0,1,23.37,9.53,31.35,31.35,0,0,1,9.66,23v38.65a31.35,31.35,0,0,1-9.66,23A32.09,32.09,0,0,1,473.54,253Zm-19.46-97.76-4.15,0a3.49,3.49,0,0,0-3.47,3.48v84.77a3.48,3.48,0,0,0,3.48,3.48h23.6a25.91,25.91,0,0,0,19.07-7.8,25.2,25.2,0,0,0,7.88-18.75V181.79A25.2,25.2,0,0,0,492.61,163a25.91,25.91,0,0,0-19.07-7.8Zm19.46,87.6H461.31a10.25,10.25,0,0,1-10.24-10.23V169.67a10.26,10.26,0,0,1,10.21-10.24l12.18,0a21.73,21.73,0,0,1,15.8,6.51,21.37,21.37,0,0,1,6.61,15.69v38.16a23.19,23.19,0,0,1-8.21,18A21.67,21.67,0,0,1,473.54,242.84Zm0-77.44-12.24,0a4.24,4.24,0,0,0-4.21,4.23v62.94a4.22,4.22,0,0,0,4.22,4.22h12.16a15.65,15.65,0,0,0,10.36-3.69,17.2,17.2,0,0,0,6-13.39V181.59A15.37,15.37,0,0,0,485,170.18,15.71,15.71,0,0,0,473.54,165.4Z" transform="translate(-165.83 -109.89)"/><path class="cls-1" d="M600.26,465.46H266c-52.08,0-94.68-38.83-94.68-86.27h0c0-47.45,42.6-86.27,94.68-86.27H600.26c52.07,0,94.67,38.82,94.67,86.27h0C694.93,426.63,652.33,465.46,600.26,465.46Z" transform="translate(-165.83 -109.89)"/><path class="cls-4" d="M582.75,358.57v41.24A28.29,28.29,0,0,1,574,420.7a30.28,30.28,0,0,1-42.37,0,28.39,28.39,0,0,1-8.77-20.92V358.57a28.29,28.29,0,0,1,8.77-20.89,30.22,30.22,0,0,1,42.37,0A28.29,28.29,0,0,1,582.75,358.57Zm-49.28.12V400A19.26,19.26,0,0,0,552.8,419.2,19.38,19.38,0,0,0,572.12,400V358.37a19.39,19.39,0,0,0-19.32-19.2,18.84,18.84,0,0,0-14.6,6.57A19.36,19.36,0,0,0,533.47,358.69Z" transform="translate(-165.83 -109.89)"/><path class="cls-4" d="M552.8,432.37a32,32,0,0,1-23.31-9.5,31.44,31.44,0,0,1-9.65-23.06V358.57a31.34,31.34,0,0,1,9.66-23,33.22,33.22,0,0,1,46.6,0,31.37,31.37,0,0,1,9.65,23v41.24a31.38,31.38,0,0,1-9.65,23A32.11,32.11,0,0,1,552.8,432.37Zm0-100.35a25.92,25.92,0,0,0-19.08,7.8,25.19,25.19,0,0,0-7.87,18.75v41.24a25.33,25.33,0,0,0,7.88,18.79,27.26,27.26,0,0,0,38.14,0,25.19,25.19,0,0,0,7.87-18.75V358.57a25.19,25.19,0,0,0-7.87-18.75A25.91,25.91,0,0,0,552.8,332Zm0,90.19A22.3,22.3,0,0,1,530.46,400V358.69a22.25,22.25,0,0,1,5.51-15,22.38,22.38,0,0,1,32.55-1.05,21.52,21.52,0,0,1,6.61,15.66V400a22.4,22.4,0,0,1-22.33,22.2Zm0-80a15.82,15.82,0,0,0-12.36,5.57,16.25,16.25,0,0,0-4,10.94V400a15.41,15.41,0,0,0,4.76,11.42A16.35,16.35,0,0,0,569.11,400V358.37a16.37,16.37,0,0,0-16.31-16.19Z" transform="translate(-165.83 -109.89)"/><path class="cls-4" d="M346.43,403.49a8.14,8.14,0,0,1-.05.87.93.93,0,0,1,0,.24c-.06.32-.1.62-.18.92a33.1,33.1,0,0,1-65.64-5.77,1.42,1.42,0,0,1,0-.29V358.91a1.32,1.32,0,0,1,0-.28,33.1,33.1,0,0,1,65.64-5.78c.08.3.12.6.18.92a.93.93,0,0,1,0,.24,8.3,8.3,0,0,1,.05.87,8.5,8.5,0,0,1-16.95.87,16.11,16.11,0,0,0-32.09,2.11v42.65a16.11,16.11,0,0,0,32.09,2.11,8.5,8.5,0,0,1,16.95.87Z" transform="translate(-165.83 -109.89)"/><path class="cls-4" d="M421.54,422.82a8.28,8.28,0,0,1-2.47,5.82,8.37,8.37,0,0,1-5.95,2.47H374.38a8.69,8.69,0,0,1-8.68-8.69V336a8.7,8.7,0,0,1,8.7-8.7h38a9.07,9.07,0,0,1,9,7.18,8.42,8.42,0,0,1-8.27,10H384.71a2.14,2.14,0,0,0-2.13,2.13v21.89a2.14,2.14,0,0,0,2.13,2.13h14.74a9.05,9.05,0,0,1,9,7.31,8.43,8.43,0,0,1-8.29,9.89H384.71a2.13,2.13,0,0,0-2.13,2.13v21.81a2.13,2.13,0,0,0,2.13,2.13H412.3C417.21,413.89,421.61,417.9,421.54,422.82Z" transform="translate(-165.83 -109.89)"/><path class="cls-4" d="M490.46,387.29a33.08,33.08,0,0,0-16-60.74,35.5,35.5,0,0,0-3.86,0v-.05H448.09a6,6,0,0,0-1,.08,8.75,8.75,0,0,0-7.72,8.69v88.06a8.05,8.05,0,0,0,2.38,5.73,8.14,8.14,0,0,0,8.12,2,8.82,8.82,0,0,0,6.21-8.57V394.78a2.13,2.13,0,0,1,2.13-2.13h12.22a2.12,2.12,0,0,1,1.91,1.19l16.1,33a8.1,8.1,0,0,0,10.81,3.76l.57-.28a8.61,8.61,0,0,0,4-11.51l-14-28.85A2.1,2.1,0,0,1,490.46,387.29ZM471.9,343.24c7.81,0,14.93,5.15,16.75,12.75a15.84,15.84,0,0,1-15.34,19.76H458.16a2.13,2.13,0,0,1-2.13-2.13V345.37a2.13,2.13,0,0,1,2.13-2.13Z" transform="translate(-165.83 -109.89)"/><path class="cls-1" d="M585.82,181.39a33,33,0,1,0-66.05,0h0a8.31,8.31,0,0,0,0,.87v64.32a8.1,8.1,0,0,0,8.09,8.11h.58a8.11,8.11,0,0,0,8.11-8.11v-32.2a2.13,2.13,0,0,1,2.13-2.13h28.23a2.14,2.14,0,0,1,2.13,2.13v32.48a8.1,8.1,0,0,0,8.1,8.1h.59a8.09,8.09,0,0,0,8.09-8.09V182.53a7.2,7.2,0,0,0-.09-1.14ZM569.07,196.1a2.13,2.13,0,0,1-2.13,2.13H538.69a2.13,2.13,0,0,1-2.13-2.13v-5.26c0-.06,0-.1,0-.16v-7.63a8.76,8.76,0,0,0,0-.91h0c0-9.39,7.27-17,16.25-17l.42,0A15.77,15.77,0,0,1,569.07,181v1.19h.06a7,7,0,0,0-.06.79Z" transform="translate(-165.83 -109.89)"/></svg>